<?xml version="1.0" encoding="UTF-8"?>
<svg width="201px" height="62px" viewBox="0 0 201 62" version="1.1" xmlns="http://www.w3.org/2000/svg" xmlns:xlink="http://www.w3.org/1999/xlink">
    <title>World!</title>
    <g id="Page-1" stroke="none" stroke-width="1" fill="none" fill-rule="evenodd">
        <g id="index-copy-21" transform="translate(-944.000000, -302.000000)" fill="#FFFFFF" fill-rule="nonzero">
            <path d="M1003.744,363.8 L1022.032,307.712 L1018.576,307.712 L1003.528,354.368 L983.224,304.976 L962.92,354.368 L947.656,307.712 L944.2,307.712 L962.344,363.8 L983.008,313.616 L1003.744,363.8 Z M1037.66,362.72 C1047.452,362.72 1055.156,355.232 1055.156,345.368 C1055.156,335.504 1047.452,328.016 1037.66,328.016 C1028.012,328.016 1020.38,335.864 1020.38,345.44 C1020.38,354.872 1028.084,362.72 1037.66,362.72 Z M1037.444,359.696 C1029.596,359.696 1023.62,353 1023.62,345.44 C1023.62,337.736 1029.524,331.04 1037.444,331.04 C1045.652,331.04 1051.916,337.232 1051.916,345.44 C1051.916,353.504 1045.58,359.696 1037.444,359.696 Z M1065.744,362 L1065.744,345.008 C1065.744,344.621474 1065.74131,344.20892 1065.73993,343.776857 L1065.73934,343.114945 C1065.74011,342.739993 1065.74319,342.353757 1065.75088,341.960009 L1065.76247,341.484146 C1065.90356,336.694294 1066.84295,331.04 1072.584,331.04 C1073.448,331.04 1074.096,331.256 1074.888,331.688 L1076.616,328.808 C1075.464,328.304 1074.384,328.016 1073.088,328.016 C1069.56,328.016 1067.184,330.032 1065.888,333.056 L1065.744,333.056 L1065.744,328.736 L1062.504,328.736 L1062.504,362 L1065.744,362 Z M1085.26,362 L1085.26,302.6 L1082.02,302.6 L1082.02,362 L1085.26,362 Z M1109.024,362.72 C1113.92,362.72 1119.248,360.272 1121.696,356.024 L1121.84,356.024 L1121.84,362 L1125.08,362 L1125.08,302.6 L1121.84,302.6 L1121.84,334.496 L1121.696,334.496 C1118.888,330.32 1113.992,328.016 1108.88,328.016 C1098.872,328.016 1092.608,335.432 1092.608,345.152 C1092.608,354.872 1098.944,362.72 1109.024,362.72 Z M1108.952,359.696 C1100.888,359.696 1095.848,352.784 1095.848,345.152 C1095.848,337.952 1101.104,331.04 1108.736,331.04 C1116.8,331.04 1122.056,337.088 1122.056,344.792 C1122.056,352.784 1117.448,359.696 1108.952,359.696 Z M1143.372,351.704 L1143.372,307.712 L1139.916,307.712 L1139.916,351.704 L1143.372,351.704 Z M1141.644,362.72 C1143.3,362.72 1144.596,361.424 1144.596,359.768 C1144.596,358.112 1143.3,356.816 1141.644,356.816 C1139.988,356.816 1138.692,358.112 1138.692,359.768 C1138.692,361.424 1139.988,362.72 1141.644,362.72 Z" id="World!"></path>
        </g>
    </g>
</svg>