<?xml version="1.0" encoding="UTF-8"?>
<svg width="46px" height="58px" viewBox="0 0 46 58" version="1.1" xmlns="http://www.w3.org/2000/svg" xmlns:xlink="http://www.w3.org/1999/xlink">
    <title>&amp;</title>
    <g id="Page-1" stroke="none" stroke-width="1" fill="none" fill-rule="evenodd">
        <path d="M14.768,57.08 C21.824,57.08 28.736,52.112 34.784,47 L41.624,56 L45.368,56 L37.088,44.984 L44.648,36.344 L41.984,34.904 L35.072,42.464 L21.68,24.176 C26.936,20.576 31.832,16.976 31.832,10.784 C31.832,5.24 27.584,0.704 21.968,0.704 C16.28,0.704 11.384,5.384 11.384,11.144 C11.384,15.824 14.552,19.496 17.072,23.024 C9.656,27.704 0.584,33.248 0.584,42.752 C0.584,50.6 6.776,57.08 14.768,57.08 Z M19.664,21.512 C17.72,18.272 14.84,15.392 14.84,11.504 C14.84,7.688 17.792,3.944 21.752,3.944 C25.496,3.944 28.376,7.04 28.376,10.712 C28.376,16.184 23.48,18.488 19.664,21.512 Z M14.768,53.84 C8.432,53.84 4.04,48.512 4.04,42.392 C4.04,35.552 10.448,31.376 15.632,28.064 L19.088,25.76 L32.768,44.264 C27.728,48.44 21.104,53.84 14.768,53.84 Z" id="&amp;" fill="#FFFFFF" fill-rule="nonzero"></path>
    </g>
</svg>