<?xml version="1.0" encoding="UTF-8"?>
<svg width="347px" height="75px" viewBox="0 0 347 75" version="1.1" xmlns="http://www.w3.org/2000/svg" xmlns:xlink="http://www.w3.org/1999/xlink">
    <title>eXperiences</title>
    <g id="Page-1" stroke="none" stroke-width="1" fill="none" fill-rule="evenodd">
        <path d="M16.432,55.72 C22.984,55.72 28.312,52.48 31.336,46.72 L28.6,45.136 C26.224,49.6 22.048,52.696 16.864,52.696 C9.16,52.696 3.328,47.08 3.544,38.656 L32.416,38.656 C32.488,29.08 26.512,21.016 16.432,21.016 C6.712,21.016 0.304,29.008 0.304,38.296 C0.304,47.728 6.568,55.72 16.432,55.72 Z M29.176,35.632 L3.544,35.632 C4.12,29.368 9.736,24.04 16.504,24.04 C23.344,24.04 28.384,29.512 29.176,35.632 Z M38.828,55 L51.932,30.448 L65.18,55 L68.924,55 L54.02,27.28 L68.204,0.712 L64.388,0.712 L51.932,24.04 L39.476,0.712 L35.66,0.712 L49.916,27.28 L35.084,55 L38.828,55 Z M78.072,74.44 L78.072,49.24 L78.216,49.24 C80.952,53.488 85.92,55.72 91.032,55.72 C101.04,55.72 107.304,48.376 107.304,38.656 C107.304,28.936 101.04,21.016 90.888,21.016 C85.992,21.016 80.664,23.464 78.216,27.712 L78.072,27.712 L78.072,21.736 L74.832,21.736 L74.832,74.44 L78.072,74.44 Z M91.104,52.696 C83.112,52.696 77.856,46.864 77.856,39.088 C77.856,31.096 82.464,24.04 90.96,24.04 C99.096,24.04 104.064,31.096 104.064,38.728 C104.064,46.144 98.88,52.696 91.104,52.696 Z M127.54,55.72 C134.092,55.72 139.42,52.48 142.444,46.72 L139.708,45.136 C137.332,49.6 133.156,52.696 127.972,52.696 C120.268,52.696 114.436,47.08 114.652,38.656 L143.524,38.656 C143.596,29.08 137.62,21.016 127.54,21.016 C117.82,21.016 111.412,29.008 111.412,38.296 C111.412,47.728 117.676,55.72 127.54,55.72 Z M140.284,35.632 L114.652,35.632 C115.228,29.368 120.844,24.04 127.612,24.04 C134.452,24.04 139.492,29.512 140.284,35.632 Z M154.112,55 L154.112,38.008 C154.112,37.6214737 154.109307,37.2089197 154.107926,36.7768567 L154.107337,36.1149453 C154.108112,35.7399934 154.111187,35.3537571 154.11888,34.9600087 L154.130475,34.4841464 C154.271557,29.6942936 155.210947,24.04 160.952,24.04 C161.816,24.04 162.464,24.256 163.256,24.688 L164.984,21.808 C163.832,21.304 162.752,21.016 161.456,21.016 C157.928,21.016 155.552,23.032 154.256,26.056 L154.112,26.056 L154.112,21.736 L150.872,21.736 L150.872,55 L154.112,55 Z M173.268,13.6 C174.924,13.6 176.22,12.304 176.22,10.648 C176.22,9.064 174.924,7.696 173.268,7.696 C171.612,7.696 170.316,9.064 170.316,10.648 C170.316,12.304 171.612,13.6 173.268,13.6 Z M174.852,55 L174.852,21.736 L171.612,21.736 L171.612,55 L174.852,55 Z M199.624,55.72 C206.176,55.72 211.504,52.48 214.528,46.72 L211.792,45.136 C209.416,49.6 205.24,52.696 200.056,52.696 C192.352,52.696 186.52,47.08 186.736,38.656 L215.608,38.656 C215.68,29.08 209.704,21.016 199.624,21.016 C189.904,21.016 183.496,29.008 183.496,38.296 C183.496,47.728 189.76,55.72 199.624,55.72 Z M212.368,35.632 L186.736,35.632 C187.312,29.368 192.928,24.04 199.696,24.04 C206.536,24.04 211.576,29.512 212.368,35.632 Z M226.196,55 L226.196,38.584 C226.196,31.816 227.564,24.04 235.916,24.04 C243.188,24.04 243.908,28.936 243.908,34.912 L243.908,55 L247.148,55 L247.148,34.912 C247.148,26.344 244.772,21.016 236.204,21.016 C231.884,21.016 228.284,23.248 226.34,26.92 L226.196,26.92 L226.196,21.736 L222.956,21.736 L222.956,55 L226.196,55 Z M271.56,55.72 C276.024,55.72 280.272,54.064 283.656,51.112 L283.656,46.72 C280.632,50.392 276.168,52.696 271.416,52.696 C263.568,52.696 257.736,45.856 257.736,38.296 C257.736,30.736 263.64,24.04 271.488,24.04 C276.24,24.04 280.056,25.984 283.224,29.44 L283.224,25.12 C279.912,22.312 275.952,21.016 271.632,21.016 C261.84,21.016 254.496,28.648 254.496,38.296 C254.496,48.016 261.696,55.72 271.56,55.72 Z M304.468,55.72 C311.02,55.72 316.348,52.48 319.372,46.72 L316.636,45.136 C314.26,49.6 310.084,52.696 304.9,52.696 C297.196,52.696 291.364,47.08 291.58,38.656 L320.452,38.656 C320.524,29.08 314.548,21.016 304.468,21.016 C294.748,21.016 288.34,29.008 288.34,38.296 C288.34,47.728 294.604,55.72 304.468,55.72 Z M317.212,35.632 L291.58,35.632 C292.156,29.368 297.772,24.04 304.54,24.04 C311.38,24.04 316.42,29.512 317.212,35.632 Z M335.72,55.72 C341.696,55.72 346.448,51.472 346.448,45.352 C346.448,33.328 330.248,37.216 330.248,29.224 C330.248,26.344 333.128,24.04 335.936,24.04 C338.528,24.04 340.688,25.48 341.768,27.784 L344.576,26.344 C343.136,23.248 339.464,21.016 336.08,21.016 C331.256,21.016 327.008,24.4 327.008,29.44 C327.008,35.056 332.192,37 336.728,38.656 C340.04,39.808 343.208,41.104 343.208,45.208 C343.208,49.384 339.896,52.696 335.72,52.696 C331.328,52.696 328.664,49.888 327.44,45.928 L324.272,46.936 C325.64,52.336 330.176,55.72 335.72,55.72 Z" id="eXperiences" fill="#FFFFFF" fill-rule="nonzero"></path>
    </g>
</svg>