<?xml version="1.0" encoding="UTF-8"?>
<svg width="80px" height="54px" viewBox="0 0 80 54" version="1.1" xmlns="http://www.w3.org/2000/svg" xmlns:xlink="http://www.w3.org/1999/xlink">
    <title>my</title>
    <g id="Page-1" stroke="none" stroke-width="1" fill="none" fill-rule="evenodd">
        <path d="M3.784,34 L3.784,15.712 C3.784,10.312 5.08,3.04 12.064,3.04 C18.44275,3.04 19.4493965,8.1330332 19.4792969,13.2369676 L19.48,34 L22.72,34 L22.72,14.848 C22.72,9.088 24.376,3.04 31.288,3.04 C37.624,3.04 38.416,7.576 38.416,12.688 L38.416,34 L41.656,34 L41.656,13.12 C41.656,5.848 39.928,0.016 31.36,0.016 C27.112,0.016 23.44,2.104 21.64,6.064 C19.912,2.176 16.528,0.016 12.28,0.016 C8.752,0.016 5.44,1.816 3.928,4.912 L3.784,4.912 L3.784,0.736 L0.544,0.736 L0.544,34 L3.784,34 Z M57.5,53.44 L79.82,0.736 L76.508,0.736 L63.764,30.832 L49.58,0.736 L46.196,0.736 L62.18,34.576 L54.188,53.44 L57.5,53.44 Z" id="my" fill="#FFFFFF" fill-rule="nonzero"></path>
    </g>
</svg>