<?xml version="1.0" encoding="UTF-8"?>
<svg width="240px" height="80px" viewBox="0 0 240 80" version="1.1" xmlns="http://www.w3.org/2000/svg" xmlns:xlink="http://www.w3.org/1999/xlink">
    <title>personal</title>
    <g id="Page-1" stroke="none" stroke-width="1" fill="none" fill-rule="evenodd">
        <path d="M3.784,79.44 L3.784,54.24 L3.928,54.24 C6.664,58.488 11.632,60.72 16.744,60.72 C26.752,60.72 33.016,53.376 33.016,43.656 C33.016,33.936 26.752,26.016 16.6,26.016 C11.704,26.016 6.376,28.464 3.928,32.712 L3.784,32.712 L3.784,26.736 L0.544,26.736 L0.544,79.44 L3.784,79.44 Z M16.816,57.696 C8.824,57.696 3.568,51.864 3.568,44.088 C3.568,36.096 8.176,29.04 16.672,29.04 C24.808,29.04 29.776,36.096 29.776,43.728 C29.776,51.144 24.592,57.696 16.816,57.696 Z M53.252,60.72 C59.804,60.72 65.132,57.48 68.156,51.72 L65.42,50.136 C63.044,54.6 58.868,57.696 53.684,57.696 C45.98,57.696 40.148,52.08 40.364,43.656 L69.236,43.656 C69.308,34.08 63.332,26.016 53.252,26.016 C43.532,26.016 37.124,34.008 37.124,43.296 C37.124,52.728 43.388,60.72 53.252,60.72 Z M65.996,40.632 L40.364,40.632 C40.94,34.368 46.556,29.04 53.324,29.04 C60.164,29.04 65.204,34.512 65.996,40.632 Z M79.824,60 L79.8232508,42.6130392 C79.8223506,42.34427 79.8208469,42.0648987 79.8199258,41.7768567 L79.8193368,41.1149453 C79.8201118,40.7399934 79.8231871,40.3537571 79.8308796,39.9600087 L79.842475,39.4841464 C79.9835568,34.6942936 80.9229474,29.04 86.664,29.04 C87.528,29.04 88.176,29.256 88.968,29.688 L90.696,26.808 C89.544,26.304 88.464,26.016 87.168,26.016 C83.64,26.016 81.264,28.032 79.968,31.056 L79.824,31.056 L79.824,26.736 L76.584,26.736 L76.584,60 L79.824,60 Z M104.02,60.72 C109.996,60.72 114.748,56.472 114.748,50.352 C114.748,38.328 98.548,42.216 98.548,34.224 C98.548,31.344 101.428,29.04 104.236,29.04 C106.828,29.04 108.988,30.48 110.068,32.784 L112.876,31.344 C111.436,28.248 107.764,26.016 104.38,26.016 C99.556,26.016 95.308,29.4 95.308,34.44 C95.308,40.056 100.492,42 105.028,43.656 C108.34,44.808 111.508,46.104 111.508,50.208 C111.508,54.384 108.196,57.696 104.02,57.696 C99.628,57.696 96.964,54.888 95.74,50.928 L92.572,51.936 C93.94,57.336 98.476,60.72 104.02,60.72 Z M136.64,60.72 C146.432,60.72 154.136,53.232 154.136,43.368 C154.136,33.504 146.432,26.016 136.64,26.016 C126.992,26.016 119.36,33.864 119.36,43.44 C119.36,52.872 127.064,60.72 136.64,60.72 Z M136.424,57.696 C128.576,57.696 122.6,51 122.6,43.44 C122.6,35.736 128.504,29.04 136.424,29.04 C144.632,29.04 150.896,35.232 150.896,43.44 C150.896,51.504 144.56,57.696 136.424,57.696 Z M164.724,60 L164.724,43.584 C164.724,36.816 166.092,29.04 174.444,29.04 C181.716,29.04 182.436,33.936 182.436,39.912 L182.436,60 L185.676,60 L185.676,39.912 C185.676,31.344 183.3,26.016 174.732,26.016 C170.412,26.016 166.812,28.248 164.868,31.92 L164.724,31.92 L164.724,26.736 L161.484,26.736 L161.484,60 L164.724,60 Z M209.44,60.72 C214.336,60.72 219.664,58.272 222.112,54.024 L222.256,54.024 L222.256,60 L225.496,60 L225.496,26.736 L222.256,26.736 L222.256,32.496 L222.112,32.496 C219.304,28.32 214.408,26.016 209.296,26.016 C199.288,26.016 193.024,33.432 193.024,43.152 C193.024,52.872 199.36,60.72 209.44,60.72 Z M209.368,57.696 C201.304,57.696 196.264,50.784 196.264,43.152 C196.264,35.952 201.52,29.04 209.152,29.04 C217.216,29.04 222.472,35.088 222.472,42.792 C222.472,50.784 217.864,57.696 209.368,57.696 Z M239.324,60 L239.324,0.6 L236.084,0.6 L236.084,60 L239.324,60 Z" id="personal" fill="#FFFFFF" fill-rule="nonzero"></path>
    </g>
</svg>