<?xml version="1.0" encoding="UTF-8"?>
<svg width="253px" height="79px" viewBox="0 0 253 79" version="1.1" xmlns="http://www.w3.org/2000/svg" xmlns:xlink="http://www.w3.org/1999/xlink">
    <title>Thoughts</title>
    <g id="Page-1" stroke="none" stroke-width="1" fill="none" fill-rule="evenodd">
        <path d="M17.928,60 L17.928,8.952 L31.968,8.952 L31.968,5.712 L0.432,5.712 L0.432,8.952 L14.472,8.952 L14.472,60 L17.928,60 Z M40.684,60 L40.684,43.584 C40.684,36.816 42.052,29.04 50.404,29.04 C57.676,29.04 58.396,33.936 58.396,39.912 L58.396,60 L61.636,60 L61.636,39.912 C61.636,31.344 59.26,26.016 50.692,26.016 C46.372,26.016 42.772,28.248 40.828,31.92 L40.684,31.92 L40.684,0.6 L37.444,0.6 L37.444,60 L40.684,60 Z M86.264,60.72 C96.056,60.72 103.76,53.232 103.76,43.368 C103.76,33.504 96.056,26.016 86.264,26.016 C76.616,26.016 68.984,33.864 68.984,43.44 C68.984,52.872 76.688,60.72 86.264,60.72 Z M86.048,57.696 C78.2,57.696 72.224,51 72.224,43.44 C72.224,35.736 78.128,29.04 86.048,29.04 C94.256,29.04 100.52,35.232 100.52,43.44 C100.52,51.504 94.184,57.696 86.048,57.696 Z M122.556,60.72 C126.3,60.72 130.188,59.28 132.492,56.256 C134.58,53.448 134.508,50.064 134.508,46.68 L134.508,26.736 L131.268,26.736 L131.268,45.528 L131.266244,46.0531206 C131.22309,52.2472929 130.329041,57.696 122.556,57.696 C114.673479,57.696 113.865091,52.0927273 113.844422,45.7909645 L113.844,26.736 L110.604,26.736 L110.604,46.68 C110.604,50.064 110.532,53.448 112.62,56.256 C114.924,59.28 118.812,60.72 122.556,60.72 Z M157.768,78.936 C163.024,78.936 167.92,76.776 171.016,72.528 C174.184,68.136 174.328,63.528 174.328,58.416 L174.328,26.736 L171.088,26.736 L171.088,32.496 L170.944,32.496 C167.848,28.32 163.816,26.016 158.416,26.016 C148.696,26.016 141.856,33.72 141.856,43.296 C141.856,52.584 148.336,60.72 157.984,60.72 C163.024,60.72 167.992,58.2 170.944,54.24 L171.088,54.24 L171.088,58.344 C171.088,62.808 170.728,67.128 168.136,70.944 C165.688,74.472 161.656,75.912 157.48,75.912 C150.784,75.912 144.952,71.592 144.592,64.68 L141.352,64.68 C141.856,73.824 149.056,78.936 157.768,78.936 Z M158.2,57.696 C150.136,57.696 145.096,50.784 145.096,43.152 C145.096,35.952 150.352,29.04 157.984,29.04 C166.048,29.04 171.304,35.088 171.304,42.792 C171.304,50.784 166.696,57.696 158.2,57.696 Z M188.156,60 L188.156,43.584 C188.156,36.816 189.524,29.04 197.876,29.04 C205.148,29.04 205.868,33.936 205.868,39.912 L205.868,60 L209.108,60 L209.108,39.912 C209.108,31.344 206.732,26.016 198.164,26.016 C193.844,26.016 190.244,28.248 188.3,31.92 L188.156,31.92 L188.156,0.6 L184.916,0.6 L184.916,60 L188.156,60 Z M223.296,60 L223.296,29.76 L229.128,29.76 L229.128,26.736 L223.296,26.736 L223.296,14.856 L220.056,14.856 L220.056,26.736 L216.384,26.736 L216.384,29.76 L220.056,29.76 L220.056,60 L223.296,60 Z M242.164,60.72 C248.14,60.72 252.892,56.472 252.892,50.352 C252.892,38.328 236.692,42.216 236.692,34.224 C236.692,31.344 239.572,29.04 242.38,29.04 C244.972,29.04 247.132,30.48 248.212,32.784 L251.02,31.344 C249.58,28.248 245.908,26.016 242.524,26.016 C237.7,26.016 233.452,29.4 233.452,34.44 C233.452,40.056 238.636,42 243.172,43.656 L243.612481,43.8106872 C246.759342,44.9287467 249.652,46.2864 249.652,50.208 C249.652,54.384 246.34,57.696 242.164,57.696 C237.772,57.696 235.108,54.888 233.884,50.928 L230.716,51.936 C232.084,57.336 236.62,60.72 242.164,60.72 Z" id="Thoughts" fill="#FFFFFF" fill-rule="nonzero"></path>
    </g>
</svg>