<?xml version="1.0" encoding="UTF-8"?>
<svg width="11px" height="11px" viewBox="0 0 11 11" version="1.1" xmlns="http://www.w3.org/2000/svg" xmlns:xlink="http://www.w3.org/1999/xlink">
    <title>Shape</title>
    <g id="Page-1" stroke="none" stroke-width="1" fill="none" fill-rule="evenodd">
        <g id="index-copy-18" transform="translate(-1744.000000, -69.000000)" fill="#FFFFFF" fill-rule="nonzero">
            <g id="Group-3" transform="translate(1687.000000, 64.000000)">
                <path d="M61.6666667,6 L61.6666667,7.33333333 L58.3333333,7.33333333 L58.3333333,14.6666667 L65.6666667,14.6666667 L65.6666667,11.3333333 L67,11.3333333 L67,15.3333333 C67,15.7015232 66.7015232,16 66.3333333,16 L57.6666667,16 C57.2984768,16 57,15.7015232 57,15.3333333 L57,6.66666667 C57,6.29847683 57.2984768,6 57.6666667,6 L61.6666667,6 Z M68,5 L68,9.99687695 L66.7507808,9.99687695 L66.7507808,7.13179263 L61.883198,12 L61,11.116802 L65.8669582,6.24921924 L63.003123,6.24921924 L63.003123,5 L68,5 Z" id="Shape"></path>
            </g>
        </g>
    </g>
</svg>