<?xml version="1.0" encoding="UTF-8"?>
<svg width="109px" height="46px" viewBox="0 0 109 46" version="1.1" xmlns="http://www.w3.org/2000/svg" xmlns:xlink="http://www.w3.org/1999/xlink">
    <title>Oops!</title>
    <g id="Page-1" stroke="none" stroke-width="1" fill="none" fill-rule="evenodd">
        <g id="index-copy-20" transform="translate(-793.000000, -392.000000)" fill="#FFFFFF" fill-rule="nonzero">
            <g id="Group-6" transform="translate(756.000000, 350.000000)">
                <path d="M54.788,76.44 C64.116,76.44 71.992,68.74 71.992,59.412 C71.992,50.084 64.116,42.384 54.788,42.384 C45.416,42.384 37.584,50.084 37.584,59.412 C37.584,68.74 45.46,76.44 54.788,76.44 Z M54.788,74.46 C46.516,74.46 39.696,67.596 39.696,59.412 C39.696,51.228 46.516,44.364 54.788,44.364 C63.016,44.364 69.88,51.228 69.88,59.412 C69.88,67.552 63.016,74.46 54.788,74.46 Z M85.0773333,76.44 C91.0613333,76.44 95.7693333,71.864 95.7693333,65.836 C95.7693333,59.808 91.0613333,55.232 85.0773333,55.232 C79.1813333,55.232 74.5173333,60.028 74.5173333,65.88 C74.5173333,71.644 79.2253333,76.44 85.0773333,76.44 Z M84.9453333,74.592 C80.1493333,74.592 76.4973333,70.5 76.4973333,65.88 C76.4973333,61.172 80.1053333,57.08 84.9453333,57.08 C89.9613333,57.08 93.7893333,60.864 93.7893333,65.88 C93.7893333,70.808 89.9173333,74.592 84.9453333,74.592 Z M102.078667,87.88 L102.078667,72.48 L102.166667,72.48 C103.838667,75.076 106.874667,76.44 109.998667,76.44 C116.114667,76.44 119.942667,71.952 119.942667,66.012 C119.942667,60.072 116.114667,55.232 109.910667,55.232 C106.918667,55.232 103.662667,56.728 102.166667,59.324 L102.078667,59.324 L102.078667,55.672 L100.098667,55.672 L100.098667,87.88 L102.078667,87.88 Z M110.042667,74.592 C105.158667,74.592 101.946667,71.028 101.946667,66.276 C101.946667,61.392 104.762667,57.08 109.954667,57.08 C114.926667,57.08 117.962667,61.392 117.962667,66.056 C117.962667,70.588 114.794667,74.592 110.042667,74.592 Z M129.112,76.44 C132.764,76.44 135.668,73.844 135.668,70.104 C135.668,62.756 125.768,65.132 125.768,60.248 C125.768,58.488 127.528,57.08 129.244,57.08 C130.828,57.08 132.148,57.96 132.808,59.368 L134.524,58.488 C133.644,56.596 131.4,55.232 129.332,55.232 C126.384,55.232 123.788,57.3 123.788,60.38 C123.788,63.812 126.956,65 129.728,66.012 L130.118147,66.1497941 C131.993748,66.8253361 133.688,67.6698065 133.688,70.016 C133.688,72.568 131.664,74.592 129.112,74.592 C126.428,74.592 124.8,72.876 124.052,70.456 L122.116,71.072 C122.952,74.372 125.724,76.44 129.112,76.44 Z M145.013333,69.708 L145.013333,42.824 L142.901333,42.824 L142.901333,69.708 L145.013333,69.708 Z M143.957333,76.44 C144.969333,76.44 145.761333,75.648 145.761333,74.636 C145.761333,73.624 144.969333,72.832 143.957333,72.832 C142.945333,72.832 142.153333,73.624 142.153333,74.636 C142.153333,75.648 142.945333,76.44 143.957333,76.44 Z" id="Oops!"></path>
            </g>
        </g>
    </g>
</svg>