<?xml version="1.0" encoding="UTF-8"?>
<svg width="163px" height="72px" viewBox="0 0 163 72" version="1.1" xmlns="http://www.w3.org/2000/svg" xmlns:xlink="http://www.w3.org/1999/xlink">
    <title>Hello,</title>
    <g id="Page-1" stroke="none" stroke-width="1" fill="none" fill-rule="evenodd">
        <path d="M3.472,60 L3.472,31.992 L36.448,31.992 L36.448,60 L39.904,60 L39.904,5.712 L36.448,5.712 L36.448,28.752 L3.472,28.752 L3.472,5.712 L0.016,5.712 L0.016,60 L3.472,60 Z M63.668,60.72 C70.22,60.72 75.548,57.48 78.572,51.72 L75.836,50.136 C73.46,54.6 69.284,57.696 64.1,57.696 C56.396,57.696 50.564,52.08 50.78,43.656 L79.652,43.656 C79.724,34.08 73.748,26.016 63.668,26.016 C53.948,26.016 47.54,34.008 47.54,43.296 C47.54,52.728 53.804,60.72 63.668,60.72 Z M76.412,40.632 L50.78,40.632 C51.356,34.368 56.972,29.04 63.74,29.04 C70.58,29.04 75.62,34.512 76.412,40.632 Z M90.24,60 L90.24,0.6 L87,0.6 L87,60 L90.24,60 Z M104.068,60 L104.068,0.6 L100.828,0.6 L100.828,60 L104.068,60 Z M128.696,60.72 C138.488,60.72 146.192,53.232 146.192,43.368 C146.192,33.504 138.488,26.016 128.696,26.016 C119.048,26.016 111.416,33.864 111.416,43.44 C111.416,52.872 119.12,60.72 128.696,60.72 Z M128.48,57.696 C120.632,57.696 114.656,51 114.656,43.44 C114.656,35.736 120.56,29.04 128.48,29.04 C136.688,29.04 142.952,35.232 142.952,43.44 C142.952,51.504 136.616,57.696 128.48,57.696 Z M156.276,71.952 L162.252,55.68 L159.012,54.672 L154.116,71.16 L156.276,71.952 Z" id="Hello," fill="#FFFFFF" fill-rule="nonzero"></path>
    </g>
</svg>