<?xml version="1.0" encoding="UTF-8"?>
<svg width="118px" height="56px" viewBox="0 0 118 56" version="1.1" xmlns="http://www.w3.org/2000/svg" xmlns:xlink="http://www.w3.org/1999/xlink">
    <title>Iam</title>
    <g id="Page-1" stroke="none" stroke-width="1" fill="none" fill-rule="evenodd">
        <path d="M4.288,55 L4.288,0.712 L0.832,0.712 L0.832,55 L4.288,55 Z M50.16,55.72 C55.056,55.72 60.384,53.272 62.832,49.024 L62.976,49.024 L62.976,55 L66.216,55 L66.216,21.736 L62.976,21.736 L62.976,27.496 L62.832,27.496 C60.024,23.32 55.128,21.016 50.016,21.016 C40.008,21.016 33.744,28.432 33.744,38.152 C33.744,47.872 40.08,55.72 50.16,55.72 Z M50.088,52.696 C42.024,52.696 36.984,45.784 36.984,38.152 C36.984,30.952 42.24,24.04 49.872,24.04 C57.936,24.04 63.192,30.088 63.192,37.792 C63.192,45.784 58.584,52.696 50.088,52.696 Z M80.044,55 L80.044,36.712 C80.044,31.312 81.34,24.04 88.324,24.04 C94.70275,24.04 95.7093965,29.1330332 95.7392969,34.2369676 L95.74,55 L98.98,55 L98.98,35.848 C98.98,30.088 100.636,24.04 107.548,24.04 C113.781806,24.04 114.649009,28.4308574 114.675362,33.4411113 L114.676,55 L117.916,55 L117.916,34.12 C117.916,26.848 116.188,21.016 107.62,21.016 C103.372,21.016 99.7,23.104 97.9,27.064 C96.172,23.176 92.788,21.016 88.54,21.016 C85.012,21.016 81.7,22.816 80.188,25.912 L80.044,25.912 L80.044,21.736 L76.804,21.736 L76.804,55 L80.044,55 Z" id="Iam" fill="#FFFFFF" fill-rule="nonzero"></path>
    </g>
</svg>