<?xml version="1.0" encoding="UTF-8"?>
<svg width="241px" height="62px" viewBox="0 0 241 62" version="1.1" xmlns="http://www.w3.org/2000/svg" xmlns:xlink="http://www.w3.org/1999/xlink">
    <title>Interface</title>
    <g id="Page-1" stroke="none" stroke-width="1" fill="none" fill-rule="evenodd">
        <path d="M4.288,61 L4.288,6.712 L0.832,6.712 L0.832,61 L4.288,61 Z M18.404,61 L18.404,44.584 C18.404,37.816 19.772,30.04 28.124,30.04 C35.396,30.04 36.116,34.936 36.116,40.912 L36.116,61 L39.356,61 L39.356,40.912 C39.356,32.344 36.98,27.016 28.412,27.016 C24.092,27.016 20.492,29.248 18.548,32.92 L18.404,32.92 L18.404,27.736 L15.164,27.736 L15.164,61 L18.404,61 Z M53.544,61 L53.544,30.76 L59.376,30.76 L59.376,27.736 L53.544,27.736 L53.544,15.856 L50.304,15.856 L50.304,27.736 L46.632,27.736 L46.632,30.76 L50.304,30.76 L50.304,61 L53.544,61 Z M77.38,61.72 C83.932,61.72 89.26,58.48 92.284,52.72 L89.548,51.136 C87.172,55.6 82.996,58.696 77.812,58.696 C70.108,58.696 64.276,53.08 64.492,44.656 L93.364,44.656 C93.436,35.08 87.46,27.016 77.38,27.016 C67.66,27.016 61.252,35.008 61.252,44.296 C61.252,53.728 67.516,61.72 77.38,61.72 Z M90.124,41.632 L64.492,41.632 C65.068,35.368 70.684,30.04 77.452,30.04 C84.292,30.04 89.332,35.512 90.124,41.632 Z M103.952,61 L103.952,44.008 C103.952,43.6214737 103.949307,43.2089197 103.947926,42.7768567 L103.947337,42.1149453 C103.948112,41.7399934 103.951187,41.3537571 103.95888,40.9600087 L103.970475,40.4841464 C104.111557,35.6942936 105.050947,30.04 110.792,30.04 C111.656,30.04 112.304,30.256 113.096,30.688 L114.824,27.808 C113.672,27.304 112.592,27.016 111.296,27.016 C107.768,27.016 105.392,29.032 104.096,32.056 L103.952,32.056 L103.952,27.736 L100.712,27.736 L100.712,61 L103.952,61 Z M124.908,61 L124.908,30.76 L133.26,30.76 L133.26,27.736 L124.908,27.736 L124.908,13.48 C124.908,9.304 124.98,3.688 130.596,3.688 C131.532,3.688 132.396,3.976 133.26,4.12 L133.26,1.168 C132.324,0.808 131.388,0.664 130.38,0.664 C127.356,0.664 124.476,2.032 122.964,4.696 C121.74,6.856 121.668,10.384 121.668,12.832 L121.668,27.736 L117.996,27.736 L117.996,30.76 L121.668,30.76 L121.668,61 L124.908,61 Z M151.624,61.72 C156.52,61.72 161.848,59.272 164.296,55.024 L164.44,55.024 L164.44,61 L167.68,61 L167.68,27.736 L164.44,27.736 L164.44,33.496 L164.296,33.496 C161.488,29.32 156.592,27.016 151.48,27.016 C141.472,27.016 135.208,34.432 135.208,44.152 C135.208,53.872 141.544,61.72 151.624,61.72 Z M151.552,58.696 C143.488,58.696 138.448,51.784 138.448,44.152 C138.448,36.952 143.704,30.04 151.336,30.04 C159.4,30.04 164.656,36.088 164.656,43.792 C164.656,51.784 160.048,58.696 151.552,58.696 Z M192.092,61.72 C196.556,61.72 200.804,60.064 204.188,57.112 L204.188,52.72 C201.164,56.392 196.7,58.696 191.948,58.696 C184.1,58.696 178.268,51.856 178.268,44.296 C178.268,36.736 184.172,30.04 192.02,30.04 C196.772,30.04 200.588,31.984 203.756,35.44 L203.756,31.12 C200.444,28.312 196.484,27.016 192.164,27.016 C182.372,27.016 175.028,34.648 175.028,44.296 C175.028,54.016 182.228,61.72 192.092,61.72 Z M225,61.72 C231.552,61.72 236.88,58.48 239.904,52.72 L237.168,51.136 C234.792,55.6 230.616,58.696 225.432,58.696 C217.728,58.696 211.896,53.08 212.112,44.656 L240.984,44.656 C241.056,35.08 235.08,27.016 225,27.016 C215.28,27.016 208.872,35.008 208.872,44.296 C208.872,53.728 215.136,61.72 225,61.72 Z M237.744,41.632 L212.112,41.632 C212.688,35.368 218.304,30.04 225.072,30.04 C231.912,30.04 236.952,35.512 237.744,41.632 Z" id="Interface" fill="#FFFFFF" fill-rule="nonzero"></path>
    </g>
</svg>