<?xml version="1.0" encoding="UTF-8"?>
<svg width="288px" height="56px" viewBox="0 0 288 56" version="1.1" xmlns="http://www.w3.org/2000/svg" xmlns:xlink="http://www.w3.org/1999/xlink">
    <title>Interaction</title>
    <g id="Page-1" stroke="none" stroke-width="1" fill="none" fill-rule="evenodd">
        <path d="M4.288,55 L4.288,0.712 L0.832,0.712 L0.832,55 L4.288,55 Z M18.404,55 L18.404,38.584 C18.404,31.816 19.772,24.04 28.124,24.04 C35.396,24.04 36.116,28.936 36.116,34.912 L36.116,55 L39.356,55 L39.356,34.912 C39.356,26.344 36.98,21.016 28.412,21.016 C24.092,21.016 20.492,23.248 18.548,26.92 L18.404,26.92 L18.404,21.736 L15.164,21.736 L15.164,55 L18.404,55 Z M53.544,55 L53.544,24.76 L59.376,24.76 L59.376,21.736 L53.544,21.736 L53.544,9.856 L50.304,9.856 L50.304,21.736 L46.632,21.736 L46.632,24.76 L50.304,24.76 L50.304,55 L53.544,55 Z M77.38,55.72 C83.932,55.72 89.26,52.48 92.284,46.72 L89.548,45.136 C87.172,49.6 82.996,52.696 77.812,52.696 C70.108,52.696 64.276,47.08 64.492,38.656 L93.364,38.656 C93.436,29.08 87.46,21.016 77.38,21.016 C67.66,21.016 61.252,29.008 61.252,38.296 C61.252,47.728 67.516,55.72 77.38,55.72 Z M90.124,35.632 L64.492,35.632 C65.068,29.368 70.684,24.04 77.452,24.04 C84.292,24.04 89.332,29.512 90.124,35.632 Z M103.952,55 L103.952,38.008 C103.952,37.6214737 103.949307,37.2089197 103.947926,36.7768567 L103.947337,36.1149453 C103.948112,35.7399934 103.951187,35.3537571 103.95888,34.9600087 L103.970475,34.4841464 C104.111557,29.6942936 105.050947,24.04 110.792,24.04 C111.656,24.04 112.304,24.256 113.096,24.688 L114.824,21.808 C113.672,21.304 112.592,21.016 111.296,21.016 C107.768,21.016 105.392,23.032 104.096,26.056 L103.952,26.056 L103.952,21.736 L100.712,21.736 L100.712,55 L103.952,55 Z M133.404,55.72 C138.3,55.72 143.628,53.272 146.076,49.024 L146.22,49.024 L146.22,55 L149.46,55 L149.46,21.736 L146.22,21.736 L146.22,27.496 L146.076,27.496 C143.268,23.32 138.372,21.016 133.26,21.016 C123.252,21.016 116.988,28.432 116.988,38.152 C116.988,47.872 123.324,55.72 133.404,55.72 Z M133.332,52.696 C125.268,52.696 120.228,45.784 120.228,38.152 C120.228,30.952 125.484,24.04 133.116,24.04 C141.18,24.04 146.436,30.088 146.436,37.792 C146.436,45.784 141.828,52.696 133.332,52.696 Z M173.872,55.72 C178.336,55.72 182.584,54.064 185.968,51.112 L185.968,46.72 C182.944,50.392 178.48,52.696 173.728,52.696 C165.88,52.696 160.048,45.856 160.048,38.296 C160.048,30.736 165.952,24.04 173.8,24.04 C178.552,24.04 182.368,25.984 185.536,29.44 L185.536,25.12 C182.224,22.312 178.264,21.016 173.944,21.016 C164.152,21.016 156.808,28.648 156.808,38.296 C156.808,48.016 164.008,55.72 173.872,55.72 Z M197.492,55 L197.492,24.76 L203.324,24.76 L203.324,21.736 L197.492,21.736 L197.492,9.856 L194.252,9.856 L194.252,21.736 L190.58,21.736 L190.58,24.76 L194.252,24.76 L194.252,55 L197.492,55 Z M211.32,13.6 C212.976,13.6 214.272,12.304 214.272,10.648 C214.272,9.064 212.976,7.696 211.32,7.696 C209.664,7.696 208.368,9.064 208.368,10.648 C208.368,12.304 209.664,13.6 211.32,13.6 Z M212.904,55 L212.904,21.736 L209.664,21.736 L209.664,55 L212.904,55 Z M238.828,55.72 C248.62,55.72 256.324,48.232 256.324,38.368 C256.324,28.504 248.62,21.016 238.828,21.016 C229.18,21.016 221.548,28.864 221.548,38.44 C221.548,47.872 229.252,55.72 238.828,55.72 Z M238.612,52.696 C230.764,52.696 224.788,46 224.788,38.44 C224.788,30.736 230.692,24.04 238.612,24.04 C246.82,24.04 253.084,30.232 253.084,38.44 C253.084,46.504 246.748,52.696 238.612,52.696 Z M266.912,55 L266.912,38.584 C266.912,31.816 268.28,24.04 276.632,24.04 C283.795463,24.04 284.601048,28.7909414 284.623499,34.6451524 L284.624,55 L287.864,55 L287.864,34.912 C287.864,26.344 285.488,21.016 276.92,21.016 C272.6,21.016 269,23.248 267.056,26.92 L266.912,26.92 L266.912,21.736 L263.672,21.736 L263.672,55 L266.912,55 Z" id="Interaction" fill="#FFFFFF" fill-rule="nonzero"></path>
    </g>
</svg>