<?xml version="1.0" encoding="UTF-8"?>
<svg width="303px" height="67px" viewBox="0 0 303 67" version="1.1" xmlns="http://www.w3.org/2000/svg" xmlns:xlink="http://www.w3.org/1999/xlink">
    <title>YuJiHoon</title>
    <g id="Page-1" stroke="none" stroke-width="1" fill="none" fill-rule="evenodd">
        <path d="M21.816,55 L21.816,31.816 L39.888,0.712 L36.072,0.712 L20.088,28.216 L4.104,0.712 L0.288,0.712 L18.36,31.816 L18.36,55 L21.816,55 Z M52.42,55.72 C56.164,55.72 60.052,54.28 62.356,51.256 C64.3,48.6416552 64.3716576,45.528019 64.3722952,42.379949 L64.372,21.736 L61.132,21.736 L61.132,40.528 C61.132,46.936 60.412,52.696 52.42,52.696 C44.5374795,52.696 43.7290906,47.0927273 43.7084222,40.7909645 L43.708,21.736 L40.468,21.736 L40.468,41.68 C40.468,45.064 40.396,48.448 42.484,51.256 C44.788,54.28 48.676,55.72 52.42,55.72 Z M91.02,66.376 C98.8284507,66.376 100.54811,60.9170831 100.595002,54.2772738 L100.596,0.712 L97.14,0.712 L97.14,53.992 C97.14,58.096 96.708,63.136 91.308,63.136 C88.428,63.136 85.836,61.12 84.612,58.528 L82.02,60.472 C83.676,64 87.06,66.376 91.02,66.376 Z M114.352,13.6 C116.008,13.6 117.304,12.304 117.304,10.648 C117.304,9.064 116.008,7.696 114.352,7.696 C112.696,7.696 111.4,9.064 111.4,10.648 C111.4,12.304 112.696,13.6 114.352,13.6 Z M115.936,55 L115.936,21.736 L112.696,21.736 L112.696,55 L115.936,55 Z M153.384,55 L153.384,26.992 L186.36,26.992 L186.36,55 L189.816,55 L189.816,0.712 L186.36,0.712 L186.36,23.752 L153.384,23.752 L153.384,0.712 L149.928,0.712 L149.928,55 L153.384,55 Z M214.732,55.72 C224.524,55.72 232.228,48.232 232.228,38.368 C232.228,28.504 224.524,21.016 214.732,21.016 C205.084,21.016 197.452,28.864 197.452,38.44 C197.452,47.872 205.156,55.72 214.732,55.72 Z M214.516,52.696 C206.668,52.696 200.692,46 200.692,38.44 C200.692,30.736 206.596,24.04 214.516,24.04 C222.724,24.04 228.988,30.232 228.988,38.44 C228.988,46.504 222.652,52.696 214.516,52.696 Z M253.616,55.72 C263.408,55.72 271.112,48.232 271.112,38.368 C271.112,28.504 263.408,21.016 253.616,21.016 C243.968,21.016 236.336,28.864 236.336,38.44 C236.336,47.872 244.04,55.72 253.616,55.72 Z M253.4,52.696 C245.552,52.696 239.576,46 239.576,38.44 C239.576,30.736 245.48,24.04 253.4,24.04 C261.608,24.04 267.872,30.232 267.872,38.44 C267.872,46.504 261.536,52.696 253.4,52.696 Z M281.7,55 L281.7,38.584 C281.7,31.816 283.068,24.04 291.42,24.04 C298.692,24.04 299.412,28.936 299.412,34.912 L299.412,55 L302.652,55 L302.652,34.912 C302.652,26.344 300.276,21.016 291.708,21.016 C287.388,21.016 283.788,23.248 281.844,26.92 L281.7,26.92 L281.7,21.736 L278.46,21.736 L278.46,55 L281.7,55 Z" id="YuJiHoon" fill="#FFFFFF" fill-rule="nonzero"></path>
    </g>
</svg>