<?xml version="1.0" encoding="UTF-8"?>
<svg width="223px" height="61px" viewBox="0 0 223 61" version="1.1" xmlns="http://www.w3.org/2000/svg" xmlns:xlink="http://www.w3.org/1999/xlink">
    <title>Records</title>
    <g id="Page-1" stroke="none" stroke-width="1" fill="none" fill-rule="evenodd">
        <path d="M4.288,60 L4.288,34.296 L6.016,34.296 L23.728,60 L27.688,60 L9.904,34.296 C18.904,34.44 25.456,29.544 25.456,20.112 C25.456,15.504 23.872,11.184 19.984,8.448 C16.5415,5.9505 12.5294687,5.731125 8.42251562,5.71345898 L7.6,5.712 L7.6,5.712 L0.832,5.712 L0.832,60 L4.288,60 Z M9.018376,31.0554427 L4.288,31.056 L4.288,8.952 L6.52,8.952 C9.688,8.952 13.36,8.808 16.24,10.176 C20.128,11.904 22,15.936 22,19.968 C22,23.208 20.776,26.448 18.184,28.536 C15.5392,30.8328 12.28888,31.04392 9.018376,31.0554427 Z M48.068,60.72 C54.62,60.72 59.948,57.48 62.972,51.72 L60.236,50.136 C57.86,54.6 53.684,57.696 48.5,57.696 C40.796,57.696 34.964,52.08 35.18,43.656 L64.052,43.656 C64.124,34.08 58.148,26.016 48.068,26.016 C38.348,26.016 31.94,34.008 31.94,43.296 C31.94,52.728 38.204,60.72 48.068,60.72 Z M60.812,40.632 L35.18,40.632 C35.756,34.368 41.372,29.04 48.14,29.04 C54.98,29.04 60.02,34.512 60.812,40.632 Z M85.224,60.72 C89.688,60.72 93.936,59.064 97.32,56.112 L97.32,51.72 C94.296,55.392 89.832,57.696 85.08,57.696 C77.232,57.696 71.4,50.856 71.4,43.296 C71.4,35.736 77.304,29.04 85.152,29.04 C89.904,29.04 93.72,30.984 96.888,34.44 L96.888,30.12 C93.576,27.312 89.616,26.016 85.296,26.016 C75.504,26.016 68.16,33.648 68.16,43.296 C68.16,53.016 75.36,60.72 85.224,60.72 Z M119.284,60.72 C129.076,60.72 136.78,53.232 136.78,43.368 C136.78,33.504 129.076,26.016 119.284,26.016 C109.636,26.016 102.004,33.864 102.004,43.44 C102.004,52.872 109.708,60.72 119.284,60.72 Z M119.068,57.696 C111.22,57.696 105.244,51 105.244,43.44 C105.244,35.736 111.148,29.04 119.068,29.04 C127.276,29.04 133.54,35.232 133.54,43.44 C133.54,51.504 127.204,57.696 119.068,57.696 Z M147.368,60 L147.368,43.008 C147.368,42.6214737 147.365307,42.2089197 147.363926,41.7768567 L147.363337,41.1149453 C147.364112,40.7399934 147.367187,40.3537571 147.37488,39.9600087 L147.386475,39.4841464 C147.527557,34.6942936 148.466947,29.04 154.208,29.04 C155.072,29.04 155.72,29.256 156.512,29.688 L158.24,26.808 C157.088,26.304 156.008,26.016 154.712,26.016 C151.184,26.016 148.808,28.032 147.512,31.056 L147.368,31.056 L147.368,26.736 L144.128,26.736 L144.128,60 L147.368,60 Z M176.82,60.72 C181.716,60.72 187.044,58.272 189.492,54.024 L189.636,54.024 L189.636,60 L192.876,60 L192.876,0.6 L189.636,0.6 L189.636,32.496 L189.492,32.496 C186.684,28.32 181.788,26.016 176.676,26.016 C166.668,26.016 160.404,33.432 160.404,43.152 C160.404,52.872 166.74,60.72 176.82,60.72 Z M176.748,57.696 C168.684,57.696 163.644,50.784 163.644,43.152 C163.644,35.952 168.9,29.04 176.532,29.04 C184.596,29.04 189.852,35.088 189.852,42.792 C189.852,50.784 185.244,57.696 176.748,57.696 Z M211.384,60.72 C217.36,60.72 222.112,56.472 222.112,50.352 C222.112,38.328 205.912,42.216 205.912,34.224 C205.912,31.344 208.792,29.04 211.6,29.04 C214.192,29.04 216.352,30.48 217.432,32.784 L220.24,31.344 C218.8,28.248 215.128,26.016 211.744,26.016 C206.92,26.016 202.672,29.4 202.672,34.44 C202.672,40.056 207.856,42 212.392,43.656 L212.832481,43.8106872 C215.979342,44.9287467 218.872,46.2864 218.872,50.208 C218.872,54.384 215.56,57.696 211.384,57.696 C206.992,57.696 204.328,54.888 203.104,50.928 L199.936,51.936 C201.304,57.336 205.84,60.72 211.384,60.72 Z" id="Records" fill="#FFFFFF" fill-rule="nonzero"></path>
    </g>
</svg>