<?xml version="1.0" encoding="UTF-8"?>
<svg width="244px" height="76px" viewBox="0 0 244 76" version="1.1" xmlns="http://www.w3.org/2000/svg" xmlns:xlink="http://www.w3.org/1999/xlink">
    <title>Writings</title>
    <g id="Page-1" stroke="none" stroke-width="1" fill="none" fill-rule="evenodd">
        <path d="M60.408,58.8 L78.696,2.712 L75.24,2.712 L60.192,49.368 L39.888,-0.024 L19.584,49.368 L4.32,2.712 L0.864,2.712 L19.008,58.8 L39.672,8.616 L60.408,58.8 Z M86.404,57 L86.404,40.008 C86.404,39.6214737 86.4013075,39.2089197 86.3999258,38.7768567 L86.3993368,38.1149453 C86.4001118,37.7399934 86.4031871,37.3537571 86.4108796,36.9600087 L86.422475,36.4841464 C86.5635568,31.6942936 87.5029474,26.04 93.244,26.04 C94.108,26.04 94.756,26.256 95.548,26.688 L97.276,23.808 C96.124,23.304 95.044,23.016 93.748,23.016 C90.22,23.016 87.844,25.032 86.548,28.056 L86.404,28.056 L86.404,23.736 L83.164,23.736 L83.164,57 L86.404,57 Z M105.56,15.6 C107.216,15.6 108.512,14.304 108.512,12.648 C108.512,11.064 107.216,9.696 105.56,9.696 C103.904,9.696 102.608,11.064 102.608,12.648 C102.608,14.304 103.904,15.6 105.56,15.6 Z M107.144,57 L107.144,23.736 L103.904,23.736 L103.904,57 L107.144,57 Z M122.628,57 L122.628,26.76 L128.46,26.76 L128.46,23.736 L122.628,23.736 L122.628,11.856 L119.388,11.856 L119.388,23.736 L115.716,23.736 L115.716,26.76 L119.388,26.76 L119.388,57 L122.628,57 Z M136.456,15.6 C138.112,15.6 139.408,14.304 139.408,12.648 C139.408,11.064 138.112,9.696 136.456,9.696 C134.8,9.696 133.504,11.064 133.504,12.648 C133.504,14.304 134.8,15.6 136.456,15.6 Z M138.04,57 L138.04,23.736 L134.8,23.736 L134.8,57 L138.04,57 Z M153.164,57 L153.164,40.584 C153.164,33.816 154.532,26.04 162.884,26.04 C170.156,26.04 170.876,30.936 170.876,36.912 L170.876,57 L174.116,57 L174.116,36.912 C174.116,28.344 171.74,23.016 163.172,23.016 C158.852,23.016 155.252,25.248 153.308,28.92 L153.164,28.92 L153.164,23.736 L149.924,23.736 L149.924,57 L153.164,57 Z M197.88,75.936 C203.136,75.936 208.032,73.776 211.128,69.528 C214.296,65.136 214.44,60.528 214.44,55.416 L214.44,23.736 L211.2,23.736 L211.2,29.496 L211.056,29.496 C207.96,25.32 203.928,23.016 198.528,23.016 C188.808,23.016 181.968,30.72 181.968,40.296 C181.968,49.584 188.448,57.72 198.096,57.72 C203.136,57.72 208.104,55.2 211.056,51.24 L211.2,51.24 L211.2,55.344 C211.2,59.808 210.84,64.128 208.248,67.944 C205.8,71.472 201.768,72.912 197.592,72.912 C190.896,72.912 185.064,68.592 184.704,61.68 L181.464,61.68 C181.968,70.824 189.168,75.936 197.88,75.936 Z M198.312,54.696 C190.248,54.696 185.208,47.784 185.208,40.152 C185.208,32.952 190.464,26.04 198.096,26.04 C206.16,26.04 211.416,32.088 211.416,39.792 C211.416,47.784 206.808,54.696 198.312,54.696 Z M232.948,57.72 C238.924,57.72 243.676,53.472 243.676,47.352 C243.676,35.328 227.476,39.216 227.476,31.224 C227.476,28.344 230.356,26.04 233.164,26.04 C235.756,26.04 237.916,27.48 238.996,29.784 L241.804,28.344 C240.364,25.248 236.692,23.016 233.308,23.016 C228.484,23.016 224.236,26.4 224.236,31.44 C224.236,37.056 229.42,39 233.956,40.656 L234.396481,40.8106872 C237.543342,41.9287467 240.436,43.2864 240.436,47.208 C240.436,51.384 237.124,54.696 232.948,54.696 C228.556,54.696 225.892,51.888 224.668,47.928 L221.5,48.936 C222.868,54.336 227.404,57.72 232.948,57.72 Z" id="Writings" fill="#FFFFFF" fill-rule="nonzero"></path>
    </g>
</svg>