<?xml version="1.0" encoding="UTF-8"?>
<svg width="259px" height="74px" viewBox="0 0 259 74" version="1.1" xmlns="http://www.w3.org/2000/svg" xmlns:xlink="http://www.w3.org/1999/xlink">
    <title>Designer</title>
    <g id="Page-1" stroke="none" stroke-width="1" fill="none" fill-rule="evenodd">
        <path d="M10.624,55 C18.688,55 25.096,53.56 31.072,47.8 C36.544,42.544 39.424,35.416 39.424,27.928 C39.424,20.152 36.472,12.88 30.784,7.552 C24.808,2.008 18.544,0.712 10.624,0.712 L0.832,0.712 L0.832,55 L10.624,55 Z M10.552,51.76 L4.288,51.76 L4.288,3.952 L10.552,3.952 C17.32,3.952 22.936,5.176 28.12,9.856 C33.232,14.536 35.968,21.016 35.968,27.928 C35.968,34.408 33.376,40.6 28.768,45.208 C23.584,50.32 17.68,51.76 10.552,51.76 Z M59.876,55.72 C66.428,55.72 71.756,52.48 74.78,46.72 L72.044,45.136 C69.668,49.6 65.492,52.696 60.308,52.696 C52.604,52.696 46.772,47.08 46.988,38.656 L75.86,38.656 C75.932,29.08 69.956,21.016 59.876,21.016 C50.156,21.016 43.748,29.008 43.748,38.296 C43.748,47.728 50.012,55.72 59.876,55.72 Z M72.62,35.632 L46.988,35.632 C47.564,29.368 53.18,24.04 59.948,24.04 C66.788,24.04 71.828,29.512 72.62,35.632 Z M91.128,55.72 C97.104,55.72 101.856,51.472 101.856,45.352 C101.856,33.328 85.656,37.216 85.656,29.224 C85.656,26.344 88.536,24.04 91.344,24.04 C93.936,24.04 96.096,25.48 97.176,27.784 L99.984,26.344 C98.544,23.248 94.872,21.016 91.488,21.016 C86.664,21.016 82.416,24.4 82.416,29.44 C82.416,35.056 87.6,37 92.136,38.656 C95.448,39.808 98.616,41.104 98.616,45.208 C98.616,49.384 95.304,52.696 91.128,52.696 C86.736,52.696 84.072,49.888 82.848,45.928 L79.68,46.936 C81.048,52.336 85.584,55.72 91.128,55.72 Z M112.588,13.6 C114.244,13.6 115.54,12.304 115.54,10.648 C115.54,9.064 114.244,7.696 112.588,7.696 C110.932,7.696 109.636,9.064 109.636,10.648 C109.636,12.304 110.932,13.6 112.588,13.6 Z M114.172,55 L114.172,21.736 L110.932,21.736 L110.932,55 L114.172,55 Z M139.232,73.936 C144.488,73.936 149.384,71.776 152.48,67.528 C155.557486,63.2614857 155.781303,58.791138 155.79158,53.8529439 L155.792,21.736 L152.552,21.736 L152.552,27.496 L152.408,27.496 C149.312,23.32 145.28,21.016 139.88,21.016 C130.16,21.016 123.32,28.72 123.32,38.296 C123.32,47.584 129.8,55.72 139.448,55.72 C144.488,55.72 149.456,53.2 152.408,49.24 L152.552,49.24 L152.552,53.344 C152.552,57.808 152.192,62.128 149.6,65.944 C147.152,69.472 143.12,70.912 138.944,70.912 C132.248,70.912 126.416,66.592 126.056,59.68 L122.816,59.68 C123.32,68.824 130.52,73.936 139.232,73.936 Z M139.664,52.696 C131.6,52.696 126.56,45.784 126.56,38.152 C126.56,30.952 131.816,24.04 139.448,24.04 C147.512,24.04 152.768,30.088 152.768,37.792 C152.768,45.784 148.16,52.696 139.664,52.696 Z M169.62,55 L169.62,38.584 C169.62,31.816 170.988,24.04 179.34,24.04 C186.612,24.04 187.332,28.936 187.332,34.912 L187.332,55 L190.572,55 L190.572,34.912 C190.572,26.344 188.196,21.016 179.628,21.016 C175.308,21.016 171.708,23.248 169.764,26.92 L169.62,26.92 L169.62,21.736 L166.38,21.736 L166.38,55 L169.62,55 Z M214.048,55.72 C220.6,55.72 225.928,52.48 228.952,46.72 L226.216,45.136 C223.84,49.6 219.664,52.696 214.48,52.696 C206.776,52.696 200.944,47.08 201.16,38.656 L230.032,38.656 C230.104,29.08 224.128,21.016 214.048,21.016 C204.328,21.016 197.92,29.008 197.92,38.296 C197.92,47.728 204.184,55.72 214.048,55.72 Z M226.792,35.632 L201.16,35.632 C201.736,29.368 207.352,24.04 214.12,24.04 C220.96,24.04 226,29.512 226.792,35.632 Z M240.62,55 L240.619251,37.6130392 C240.618351,37.34427 240.616847,37.0648987 240.615926,36.7768567 L240.615337,36.1149453 C240.616112,35.7399934 240.619187,35.3537571 240.62688,34.9600087 L240.638475,34.4841464 C240.779557,29.6942936 241.718947,24.04 247.46,24.04 C248.324,24.04 248.972,24.256 249.764,24.688 L251.492,21.808 C250.34,21.304 249.26,21.016 247.964,21.016 C244.436,21.016 242.06,23.032 240.764,26.056 L240.62,26.056 L240.62,21.736 L237.38,21.736 L237.38,55 L240.62,55 Z M255.312,55.72 C256.968,55.72 258.264,54.424 258.264,52.768 C258.264,51.112 256.968,49.816 255.312,49.816 C253.656,49.816 252.36,51.112 252.36,52.768 C252.36,54.424 253.656,55.72 255.312,55.72 Z" id="Designer." fill="#FFFFFF" fill-rule="nonzero"></path>
    </g>
</svg>