<?xml version="1.0" encoding="UTF-8"?>
<svg width="125px" height="56px" viewBox="0 0 125 56" version="1.1" xmlns="http://www.w3.org/2000/svg" xmlns:xlink="http://www.w3.org/1999/xlink">
    <title>User</title>
    <g id="Page-1" stroke="none" stroke-width="1" fill="none" fill-rule="evenodd">
        <path d="M18.76,55.72 C24.232,55.72 29.848,53.56 33.52,49.384 C37.192,44.848 37.192,40.096 37.192,34.552 L37.192,0.712 L33.736,0.712 L33.736,33.544 C33.736,38.44 33.736,43.624 30.928,47.224 C28.264,50.68 22.936,52.48 18.76,52.48 C14.584,52.48 9.256,50.68 6.592,47.224 C3.784,43.624 3.784,38.44 3.784,33.544 L3.784,0.712 L0.328,0.712 L0.328,34.552 C0.328,40.096 0.328,44.848 4,49.384 C7.672,53.56 13.288,55.72 18.76,55.72 Z M55.484,55.72 C61.46,55.72 66.212,51.472 66.212,45.352 C66.212,33.328 50.012,37.216 50.012,29.224 C50.012,26.344 52.892,24.04 55.7,24.04 C58.292,24.04 60.452,25.48 61.532,27.784 L64.34,26.344 C62.9,23.248 59.228,21.016 55.844,21.016 C51.02,21.016 46.772,24.4 46.772,29.44 C46.772,35.056 51.956,37 56.492,38.656 L56.9324812,38.8106872 C60.0793422,39.9287467 62.972,41.2864 62.972,45.208 C62.972,49.384 59.66,52.696 55.484,52.696 C51.092,52.696 48.428,49.888 47.204,45.928 L44.036,46.936 C45.404,52.336 49.94,55.72 55.484,55.72 Z M86.952,55.72 C93.504,55.72 98.832,52.48 101.856,46.72 L99.12,45.136 C96.744,49.6 92.568,52.696 87.384,52.696 C79.68,52.696 73.848,47.08 74.064,38.656 L102.936,38.656 C103.008,29.08 97.032,21.016 86.952,21.016 C77.232,21.016 70.824,29.008 70.824,38.296 C70.824,47.728 77.088,55.72 86.952,55.72 Z M99.696,35.632 L74.064,35.632 C74.64,29.368 80.256,24.04 87.024,24.04 C93.864,24.04 98.904,29.512 99.696,35.632 Z M113.524,55 L113.524,38.008 C113.524,37.6214737 113.521307,37.2089197 113.519926,36.7768567 L113.519337,36.1149453 C113.520112,35.7399934 113.523187,35.3537571 113.53088,34.9600087 L113.542475,34.4841464 C113.683557,29.6942936 114.622947,24.04 120.364,24.04 C121.228,24.04 121.876,24.256 122.668,24.688 L124.396,21.808 C123.244,21.304 122.164,21.016 120.868,21.016 C117.34,21.016 114.964,23.032 113.668,26.056 L113.524,26.056 L113.524,21.736 L110.284,21.736 L110.284,55 L113.524,55 Z" id="User" fill="#FFFFFF" fill-rule="nonzero"></path>
    </g>
</svg>