<?xml version="1.0" encoding="UTF-8"?>
<svg width="292px" height="74px" viewBox="0 0 292 74" version="1.1" xmlns="http://www.w3.org/2000/svg" xmlns:xlink="http://www.w3.org/1999/xlink">
    <title>Designers!</title>
    <g id="Page-1" stroke="none" stroke-width="1" fill="none" fill-rule="evenodd">
        <g id="index-copy-21" transform="translate(-901.000000, -211.000000)" fill="#FFFFFF" fill-rule="nonzero">
            <path d="M910.928,266 C918.992,266 925.4,264.56 931.376,258.8 C936.848,253.544 939.728,246.416 939.728,238.928 C939.728,231.152 936.776,223.88 931.088,218.552 C925.112,213.008 918.848,211.712 910.928,211.712 L901.136,211.712 L901.136,266 L910.928,266 Z M910.856,262.76 L904.592,262.76 L904.592,214.952 L910.856,214.952 C917.624,214.952 923.24,216.176 928.424,220.856 C933.536,225.536 936.272,232.016 936.272,238.928 C936.272,245.408 933.68,251.6 929.072,256.208 C923.888,261.32 917.984,262.76 910.856,262.76 Z M960.18,266.72 C966.732,266.72 972.06,263.48 975.084,257.72 L972.348,256.136 C969.972,260.6 965.796,263.696 960.612,263.696 C952.908,263.696 947.076,258.08 947.292,249.656 L976.164,249.656 C976.236,240.08 970.26,232.016 960.18,232.016 C950.46,232.016 944.052,240.008 944.052,249.296 C944.052,258.728 950.316,266.72 960.18,266.72 Z M972.924,246.632 L947.292,246.632 C947.868,240.368 953.484,235.04 960.252,235.04 C967.092,235.04 972.132,240.512 972.924,246.632 Z M991.432,266.72 C997.408,266.72 1002.16,262.472 1002.16,256.352 C1002.16,244.328 985.96,248.216 985.96,240.224 C985.96,237.344 988.84,235.04 991.648,235.04 C994.24,235.04 996.4,236.48 997.48,238.784 L1000.288,237.344 C998.848,234.248 995.176,232.016 991.792,232.016 C986.968,232.016 982.72,235.4 982.72,240.44 C982.72,246.056 987.904,248 992.44,249.656 C995.752,250.808 998.92,252.104 998.92,256.208 C998.92,260.384 995.608,263.696 991.432,263.696 C987.04,263.696 984.376,260.888 983.152,256.928 L979.984,257.936 C981.352,263.336 985.888,266.72 991.432,266.72 Z M1012.892,224.6 C1014.548,224.6 1015.844,223.304 1015.844,221.648 C1015.844,220.064 1014.548,218.696 1012.892,218.696 C1011.236,218.696 1009.94,220.064 1009.94,221.648 C1009.94,223.304 1011.236,224.6 1012.892,224.6 Z M1014.476,266 L1014.476,232.736 L1011.236,232.736 L1011.236,266 L1014.476,266 Z M1039.536,284.936 C1044.792,284.936 1049.688,282.776 1052.784,278.528 C1055.86149,274.261486 1056.0853,269.791138 1056.09558,264.852944 L1056.096,232.736 L1052.856,232.736 L1052.856,238.496 L1052.712,238.496 C1049.616,234.32 1045.584,232.016 1040.184,232.016 C1030.464,232.016 1023.624,239.72 1023.624,249.296 C1023.624,258.584 1030.104,266.72 1039.752,266.72 C1044.792,266.72 1049.76,264.2 1052.712,260.24 L1052.856,260.24 L1052.856,264.344 C1052.856,268.808 1052.496,273.128 1049.904,276.944 C1047.456,280.472 1043.424,281.912 1039.248,281.912 C1032.552,281.912 1026.72,277.592 1026.36,270.68 L1023.12,270.68 C1023.624,279.824 1030.824,284.936 1039.536,284.936 Z M1039.968,263.696 C1031.904,263.696 1026.864,256.784 1026.864,249.152 C1026.864,241.952 1032.12,235.04 1039.752,235.04 C1047.816,235.04 1053.072,241.088 1053.072,248.792 C1053.072,256.784 1048.464,263.696 1039.968,263.696 Z M1069.924,266 L1069.924,249.584 C1069.924,242.816 1071.292,235.04 1079.644,235.04 C1086.916,235.04 1087.636,239.936 1087.636,245.912 L1087.636,266 L1090.876,266 L1090.876,245.912 C1090.876,237.344 1088.5,232.016 1079.932,232.016 C1075.612,232.016 1072.012,234.248 1070.068,237.92 L1069.924,237.92 L1069.924,232.736 L1066.684,232.736 L1066.684,266 L1069.924,266 Z M1114.352,266.72 C1120.904,266.72 1126.232,263.48 1129.256,257.72 L1126.52,256.136 C1124.144,260.6 1119.968,263.696 1114.784,263.696 C1107.08,263.696 1101.248,258.08 1101.464,249.656 L1130.336,249.656 C1130.408,240.08 1124.432,232.016 1114.352,232.016 C1104.632,232.016 1098.224,240.008 1098.224,249.296 C1098.224,258.728 1104.488,266.72 1114.352,266.72 Z M1127.096,246.632 L1101.464,246.632 C1102.04,240.368 1107.656,235.04 1114.424,235.04 C1121.264,235.04 1126.304,240.512 1127.096,246.632 Z M1140.924,266 L1140.92325,248.613039 C1140.92235,248.34427 1140.92085,248.064899 1140.91993,247.776857 L1140.91934,247.114945 C1140.92011,246.739993 1140.92319,246.353757 1140.93088,245.960009 L1140.94247,245.484146 C1141.08356,240.694294 1142.02295,235.04 1147.764,235.04 C1148.628,235.04 1149.276,235.256 1150.068,235.688 L1151.796,232.808 C1150.644,232.304 1149.564,232.016 1148.268,232.016 C1144.74,232.016 1142.364,234.032 1141.068,237.056 L1140.924,237.056 L1140.924,232.736 L1137.684,232.736 L1137.684,266 L1140.924,266 Z M1165.12,266.72 C1171.096,266.72 1175.848,262.472 1175.848,256.352 C1175.848,244.328 1159.648,248.216 1159.648,240.224 C1159.648,237.344 1162.528,235.04 1165.336,235.04 C1167.928,235.04 1170.088,236.48 1171.168,238.784 L1173.976,237.344 C1172.536,234.248 1168.864,232.016 1165.48,232.016 C1160.656,232.016 1156.408,235.4 1156.408,240.44 C1156.408,246.056 1161.592,248 1166.128,249.656 L1166.56848,249.810687 C1169.71534,250.928747 1172.608,252.2864 1172.608,256.208 C1172.608,260.384 1169.296,263.696 1165.12,263.696 C1160.728,263.696 1158.064,260.888 1156.84,256.928 L1153.672,257.936 C1155.04,263.336 1159.576,266.72 1165.12,266.72 Z M1191.404,255.704 L1191.404,211.712 L1187.948,211.712 L1187.948,255.704 L1191.404,255.704 Z M1189.676,266.72 C1191.332,266.72 1192.628,265.424 1192.628,263.768 C1192.628,262.112 1191.332,260.816 1189.676,260.816 C1188.02,260.816 1186.724,262.112 1186.724,263.768 C1186.724,265.424 1188.02,266.72 1189.676,266.72 Z" id="Designers!"></path>
        </g>
    </g>
</svg>