<?xml version="1.0" encoding="UTF-8"?>
<svg width="147px" height="61px" viewBox="0 0 147 61" version="1.1" xmlns="http://www.w3.org/2000/svg" xmlns:xlink="http://www.w3.org/1999/xlink">
    <title>Hello</title>
    <g id="Page-1" stroke="none" stroke-width="1" fill="none" fill-rule="evenodd">
        <g id="index-copy-21" transform="translate(-773.000000, -302.000000)" fill="#FFFFFF" fill-rule="nonzero">
            <path d="M777.288,362 L777.288,333.992 L810.264,333.992 L810.264,362 L813.72,362 L813.72,307.712 L810.264,307.712 L810.264,330.752 L777.288,330.752 L777.288,307.712 L773.832,307.712 L773.832,362 L777.288,362 Z M837.484,362.72 C844.036,362.72 849.364,359.48 852.388,353.72 L849.652,352.136 C847.276,356.6 843.1,359.696 837.916,359.696 C830.212,359.696 824.38,354.08 824.596,345.656 L853.468,345.656 C853.54,336.08 847.564,328.016 837.484,328.016 C827.764,328.016 821.356,336.008 821.356,345.296 C821.356,354.728 827.62,362.72 837.484,362.72 Z M850.228,342.632 L824.596,342.632 C825.172,336.368 830.788,331.04 837.556,331.04 C844.396,331.04 849.436,336.512 850.228,342.632 Z M864.056,362 L864.056,302.6 L860.816,302.6 L860.816,362 L864.056,362 Z M877.884,362 L877.884,302.6 L874.644,302.6 L874.644,362 L877.884,362 Z M902.512,362.72 C912.304,362.72 920.008,355.232 920.008,345.368 C920.008,335.504 912.304,328.016 902.512,328.016 C892.864,328.016 885.232,335.864 885.232,345.44 C885.232,354.872 892.936,362.72 902.512,362.72 Z M902.296,359.696 C894.448,359.696 888.472,353 888.472,345.44 C888.472,337.736 894.376,331.04 902.296,331.04 C910.504,331.04 916.768,337.232 916.768,345.44 C916.768,353.504 910.432,359.696 902.296,359.696 Z" id="Hello"></path>
        </g>
    </g>
</svg>